<mxfile host="app.diagrams.net" modified="2023-06-06T23:38:21.672Z" agent="Mozilla/5.0 (Windows NT 10.0; Win64; x64) AppleWebKit/537.36 (KHTML, like Gecko) Chrome/113.0.0.0 Safari/537.36" etag="rxz_mFOQtHrYIsJ4-WMK" version="21.3.7" type="device">
  <diagram name="Página-1" id="PfzMEz28mflTiCGQ2ddr">
    <mxGraphModel dx="2049" dy="1091" grid="1" gridSize="10" guides="1" tooltips="1" connect="1" arrows="1" fold="1" page="1" pageScale="1" pageWidth="827" pageHeight="1169" math="0" shadow="0">
      <root>
        <mxCell id="0" />
        <mxCell id="1" parent="0" />
        <mxCell id="Haq6zWAP_Mepnp8jKoBO-2" value="aesthetics" style="shape=umlFrame;whiteSpace=wrap;html=1;pointerEvents=0;" vertex="1" parent="1">
          <mxGeometry x="30" y="50" width="750" height="880" as="geometry" />
        </mxCell>
        <mxCell id="Haq6zWAP_Mepnp8jKoBO-3" value="Funcionário" style="shape=umlActor;verticalLabelPosition=bottom;verticalAlign=top;html=1;" vertex="1" parent="1">
          <mxGeometry x="50" y="420" width="50" height="130" as="geometry" />
        </mxCell>
        <mxCell id="Haq6zWAP_Mepnp8jKoBO-4" value="Cliente" style="shape=umlActor;verticalLabelPosition=bottom;verticalAlign=top;html=1;" vertex="1" parent="1">
          <mxGeometry x="630" y="110" width="50" height="120" as="geometry" />
        </mxCell>
        <mxCell id="Haq6zWAP_Mepnp8jKoBO-14" value="" style="swimlane;startSize=0;" vertex="1" parent="1">
          <mxGeometry x="290" y="70" width="250" height="830" as="geometry" />
        </mxCell>
        <mxCell id="Haq6zWAP_Mepnp8jKoBO-12" value="Manter Contas a Pagar" style="ellipse;whiteSpace=wrap;html=1;" vertex="1" parent="Haq6zWAP_Mepnp8jKoBO-14">
          <mxGeometry x="54" y="560" width="140" height="70" as="geometry" />
        </mxCell>
        <mxCell id="Haq6zWAP_Mepnp8jKoBO-11" value="Consultar Agenda" style="ellipse;whiteSpace=wrap;html=1;" vertex="1" parent="Haq6zWAP_Mepnp8jKoBO-14">
          <mxGeometry x="55" y="470" width="140" height="70" as="geometry" />
        </mxCell>
        <mxCell id="Haq6zWAP_Mepnp8jKoBO-10" value="Executar Serviço" style="ellipse;whiteSpace=wrap;html=1;" vertex="1" parent="Haq6zWAP_Mepnp8jKoBO-14">
          <mxGeometry x="55" y="380" width="140" height="70" as="geometry" />
        </mxCell>
        <mxCell id="Haq6zWAP_Mepnp8jKoBO-7" value="Manter Funcionários" style="ellipse;whiteSpace=wrap;html=1;" vertex="1" parent="Haq6zWAP_Mepnp8jKoBO-14">
          <mxGeometry x="55" y="290" width="140" height="70" as="geometry" />
        </mxCell>
        <mxCell id="Haq6zWAP_Mepnp8jKoBO-6" value="Manter Serviços" style="ellipse;whiteSpace=wrap;html=1;" vertex="1" parent="Haq6zWAP_Mepnp8jKoBO-14">
          <mxGeometry x="55" y="200" width="140" height="70" as="geometry" />
        </mxCell>
        <mxCell id="Haq6zWAP_Mepnp8jKoBO-8" value="Manter Agendamentos" style="ellipse;whiteSpace=wrap;html=1;" vertex="1" parent="Haq6zWAP_Mepnp8jKoBO-14">
          <mxGeometry x="55" y="110" width="140" height="70" as="geometry" />
        </mxCell>
        <mxCell id="Haq6zWAP_Mepnp8jKoBO-9" value="Manter Clientes" style="ellipse;whiteSpace=wrap;html=1;" vertex="1" parent="Haq6zWAP_Mepnp8jKoBO-14">
          <mxGeometry x="55" y="20" width="140" height="70" as="geometry" />
        </mxCell>
        <mxCell id="Haq6zWAP_Mepnp8jKoBO-15" value="Manter Contas a Receber" style="ellipse;whiteSpace=wrap;html=1;" vertex="1" parent="Haq6zWAP_Mepnp8jKoBO-14">
          <mxGeometry x="55" y="650" width="140" height="70" as="geometry" />
        </mxCell>
        <mxCell id="Haq6zWAP_Mepnp8jKoBO-16" value="Manter Fornecedor" style="ellipse;whiteSpace=wrap;html=1;" vertex="1" parent="Haq6zWAP_Mepnp8jKoBO-14">
          <mxGeometry x="55" y="740" width="140" height="70" as="geometry" />
        </mxCell>
        <mxCell id="Haq6zWAP_Mepnp8jKoBO-17" value="Fornecedor" style="shape=umlActor;verticalLabelPosition=bottom;verticalAlign=top;html=1;" vertex="1" parent="1">
          <mxGeometry x="630" y="792.5" width="50" height="105" as="geometry" />
        </mxCell>
        <mxCell id="Haq6zWAP_Mepnp8jKoBO-39" value="" style="endArrow=none;html=1;rounded=0;exitX=0.5;exitY=0.5;exitDx=0;exitDy=0;exitPerimeter=0;entryX=0;entryY=0.5;entryDx=0;entryDy=0;" edge="1" parent="1" source="Haq6zWAP_Mepnp8jKoBO-3" target="Haq6zWAP_Mepnp8jKoBO-9">
          <mxGeometry width="50" height="50" relative="1" as="geometry">
            <mxPoint x="280" y="570" as="sourcePoint" />
            <mxPoint x="330" y="520" as="targetPoint" />
          </mxGeometry>
        </mxCell>
        <mxCell id="Haq6zWAP_Mepnp8jKoBO-40" value="" style="endArrow=none;html=1;rounded=0;exitX=0.5;exitY=0.5;exitDx=0;exitDy=0;exitPerimeter=0;entryX=0;entryY=0.5;entryDx=0;entryDy=0;" edge="1" parent="1" source="Haq6zWAP_Mepnp8jKoBO-3" target="Haq6zWAP_Mepnp8jKoBO-8">
          <mxGeometry width="50" height="50" relative="1" as="geometry">
            <mxPoint x="280" y="570" as="sourcePoint" />
            <mxPoint x="330" y="520" as="targetPoint" />
          </mxGeometry>
        </mxCell>
        <mxCell id="Haq6zWAP_Mepnp8jKoBO-41" value="" style="endArrow=none;html=1;rounded=0;exitX=0.5;exitY=0.5;exitDx=0;exitDy=0;exitPerimeter=0;entryX=0;entryY=0.5;entryDx=0;entryDy=0;" edge="1" parent="1" source="Haq6zWAP_Mepnp8jKoBO-3" target="Haq6zWAP_Mepnp8jKoBO-6">
          <mxGeometry width="50" height="50" relative="1" as="geometry">
            <mxPoint x="280" y="570" as="sourcePoint" />
            <mxPoint x="330" y="520" as="targetPoint" />
          </mxGeometry>
        </mxCell>
        <mxCell id="Haq6zWAP_Mepnp8jKoBO-42" value="" style="endArrow=none;html=1;rounded=0;exitX=0.5;exitY=0.5;exitDx=0;exitDy=0;exitPerimeter=0;entryX=0;entryY=0.5;entryDx=0;entryDy=0;" edge="1" parent="1" source="Haq6zWAP_Mepnp8jKoBO-3" target="Haq6zWAP_Mepnp8jKoBO-7">
          <mxGeometry width="50" height="50" relative="1" as="geometry">
            <mxPoint x="280" y="570" as="sourcePoint" />
            <mxPoint x="330" y="520" as="targetPoint" />
          </mxGeometry>
        </mxCell>
        <mxCell id="Haq6zWAP_Mepnp8jKoBO-43" value="" style="endArrow=none;html=1;rounded=0;exitX=0.5;exitY=0.5;exitDx=0;exitDy=0;exitPerimeter=0;entryX=0;entryY=0.5;entryDx=0;entryDy=0;" edge="1" parent="1" source="Haq6zWAP_Mepnp8jKoBO-3" target="Haq6zWAP_Mepnp8jKoBO-10">
          <mxGeometry width="50" height="50" relative="1" as="geometry">
            <mxPoint x="280" y="570" as="sourcePoint" />
            <mxPoint x="330" y="520" as="targetPoint" />
          </mxGeometry>
        </mxCell>
        <mxCell id="Haq6zWAP_Mepnp8jKoBO-44" value="" style="endArrow=none;html=1;rounded=0;exitX=0.5;exitY=0.5;exitDx=0;exitDy=0;exitPerimeter=0;entryX=0;entryY=0.5;entryDx=0;entryDy=0;" edge="1" parent="1" source="Haq6zWAP_Mepnp8jKoBO-3" target="Haq6zWAP_Mepnp8jKoBO-11">
          <mxGeometry width="50" height="50" relative="1" as="geometry">
            <mxPoint x="280" y="570" as="sourcePoint" />
            <mxPoint x="330" y="520" as="targetPoint" />
          </mxGeometry>
        </mxCell>
        <mxCell id="Haq6zWAP_Mepnp8jKoBO-45" value="" style="endArrow=none;html=1;rounded=0;entryX=0.035;entryY=0.349;entryDx=0;entryDy=0;entryPerimeter=0;exitX=0.5;exitY=0.5;exitDx=0;exitDy=0;exitPerimeter=0;" edge="1" parent="1" source="Haq6zWAP_Mepnp8jKoBO-3" target="Haq6zWAP_Mepnp8jKoBO-12">
          <mxGeometry width="50" height="50" relative="1" as="geometry">
            <mxPoint x="130" y="450" as="sourcePoint" />
            <mxPoint x="330" y="520" as="targetPoint" />
          </mxGeometry>
        </mxCell>
        <mxCell id="Haq6zWAP_Mepnp8jKoBO-46" value="" style="endArrow=none;html=1;rounded=0;exitX=0.5;exitY=0.5;exitDx=0;exitDy=0;exitPerimeter=0;entryX=0;entryY=0.5;entryDx=0;entryDy=0;" edge="1" parent="1" source="Haq6zWAP_Mepnp8jKoBO-3" target="Haq6zWAP_Mepnp8jKoBO-15">
          <mxGeometry width="50" height="50" relative="1" as="geometry">
            <mxPoint x="280" y="570" as="sourcePoint" />
            <mxPoint x="330" y="520" as="targetPoint" />
          </mxGeometry>
        </mxCell>
        <mxCell id="Haq6zWAP_Mepnp8jKoBO-47" value="" style="endArrow=none;html=1;rounded=0;entryX=0;entryY=0.5;entryDx=0;entryDy=0;exitX=0.5;exitY=0.5;exitDx=0;exitDy=0;exitPerimeter=0;" edge="1" parent="1" source="Haq6zWAP_Mepnp8jKoBO-3" target="Haq6zWAP_Mepnp8jKoBO-16">
          <mxGeometry width="50" height="50" relative="1" as="geometry">
            <mxPoint x="130" y="450" as="sourcePoint" />
            <mxPoint x="330" y="520" as="targetPoint" />
          </mxGeometry>
        </mxCell>
        <mxCell id="Haq6zWAP_Mepnp8jKoBO-49" value="" style="endArrow=none;html=1;rounded=0;entryX=0.5;entryY=0.5;entryDx=0;entryDy=0;entryPerimeter=0;exitX=1;exitY=0.5;exitDx=0;exitDy=0;" edge="1" parent="1" source="Haq6zWAP_Mepnp8jKoBO-16" target="Haq6zWAP_Mepnp8jKoBO-17">
          <mxGeometry width="50" height="50" relative="1" as="geometry">
            <mxPoint x="350" y="580" as="sourcePoint" />
            <mxPoint x="635" y="822.4999999999998" as="targetPoint" />
          </mxGeometry>
        </mxCell>
        <mxCell id="Haq6zWAP_Mepnp8jKoBO-50" value="" style="endArrow=none;html=1;rounded=0;entryX=0.5;entryY=0.5;entryDx=0;entryDy=0;entryPerimeter=0;exitX=1;exitY=0.5;exitDx=0;exitDy=0;" edge="1" parent="1" source="Haq6zWAP_Mepnp8jKoBO-9" target="Haq6zWAP_Mepnp8jKoBO-4">
          <mxGeometry width="50" height="50" relative="1" as="geometry">
            <mxPoint x="350" y="580" as="sourcePoint" />
            <mxPoint x="615" y="200" as="targetPoint" />
          </mxGeometry>
        </mxCell>
        <mxCell id="Haq6zWAP_Mepnp8jKoBO-51" value="" style="endArrow=none;html=1;rounded=0;entryX=0.5;entryY=0.5;entryDx=0;entryDy=0;entryPerimeter=0;exitX=1;exitY=0.5;exitDx=0;exitDy=0;" edge="1" parent="1" source="Haq6zWAP_Mepnp8jKoBO-8" target="Haq6zWAP_Mepnp8jKoBO-4">
          <mxGeometry width="50" height="50" relative="1" as="geometry">
            <mxPoint x="350" y="580" as="sourcePoint" />
            <mxPoint x="615" y="200" as="targetPoint" />
          </mxGeometry>
        </mxCell>
      </root>
    </mxGraphModel>
  </diagram>
</mxfile>
